<?xml version="1.0" encoding="utf-8"?>
<!-- Generator: Adobe Illustrator 16.0.0, SVG Export Plug-In . SVG Version: 6.00 Build 0)  -->
<!DOCTYPE svg PUBLIC "-//W3C//DTD SVG 1.1//EN" "http://www.w3.org/Graphics/SVG/1.1/DTD/svg11.dtd">
<svg version="1.1" id="Layer_1" xmlns="http://www.w3.org/2000/svg" xmlns:xlink="http://www.w3.org/1999/xlink" x="0px" y="0px"
	 width="32px" height="32px" viewBox="0 0 32 32" enable-background="new 0 0 32 32" xml:space="preserve">
<g>
	<path fill="#F5F5F5" d="M31,16c0,8.285-6.716,15-15,15S1,24.285,1,16C1,7.717,7.716,1,16,1S31,7.717,31,16"/>
	<path fill="#9C9B9B" d="M16.236,15.785l4.357-4.358c0.123-0.123,0.123-0.323,0-0.446c-0.123-0.124-0.322-0.124-0.446,0
		l-4.357,4.358l-4.357-4.358c-0.124-0.124-0.323-0.124-0.446,0c-0.124,0.123-0.124,0.323,0,0.446l4.357,4.358l-4.357,4.357
		c-0.124,0.123-0.124,0.323,0,0.446c0.061,0.062,0.142,0.093,0.223,0.093c0.08,0,0.161-0.031,0.224-0.093l4.357-4.358l4.357,4.358
		c0.062,0.062,0.143,0.093,0.224,0.093s0.161-0.031,0.223-0.093c0.123-0.123,0.123-0.323,0-0.446L16.236,15.785z"/>
</g>
</svg>
