<svg xmlns="http://www.w3.org/2000/svg" width="60" height="49" viewBox="0 0 60 49">
    <g fill="none" fill-rule="evenodd">
        <path fill="#494949" fill-rule="nonzero" d="M19.12 25.139a12.008 12.008 0 0 1-8.545-3.539 12.02 12.02 0 0 1-3.54-8.55 12.01 12.01 0 0 1 3.54-8.545A11.997 11.997 0 0 1 19.12.964a12 12 0 0 1 8.546 3.54c4.711 4.712 4.711 12.38 0 17.094a12.009 12.009 0 0 1-8.546 3.54zm0-21.9a9.748 9.748 0 0 0-6.938 2.875 9.74 9.74 0 0 0-2.875 6.938 9.767 9.767 0 0 0 2.875 6.943 9.747 9.747 0 0 0 6.938 2.873c2.62 0 5.085-1.02 6.94-2.873 3.824-3.83 3.824-10.054 0-13.88a9.744 9.744 0 0 0-6.94-2.876z"/>
        <path fill="#494949" fill-rule="nonzero" d="M27.766 47.034h-7.307c-.114 0-.223-.016-.327-.048a1.107 1.107 0 0 1-.327.048h-9.58c-4.995 0-8.211-1.443-9.555-4.29-3.465-7.342 7.423-20.899 8.678-22.421a1.136 1.136 0 1 1 1.755 1.445C7.952 25.598.306 36.652 2.724 41.775c.936 1.982 3.46 2.986 7.498 2.986h9.582a1.2 1.2 0 0 1 .327.048c.102-.032.213-.048.327-.048h7.307c4.04 0 6.564-1.004 7.5-2.986 2.42-5.13-5.225-16.18-8.377-20.007a1.136 1.136 0 1 1 1.755-1.445c1.254 1.522 12.142 15.08 8.676 22.42-1.343 2.848-4.556 4.291-9.554 4.291zM42.707 25.139a9.276 9.276 0 0 1-6.591-2.73 9.265 9.265 0 0 1-2.73-6.59c0-2.49.97-4.83 2.73-6.587a9.267 9.267 0 0 1 6.59-2.73c2.49 0 4.83.97 6.59 2.73a9.25 9.25 0 0 1 2.729 6.586c0 2.489-.97 4.832-2.73 6.591a9.26 9.26 0 0 1-6.588 2.73zm0-16.366c-1.882 0-3.65.732-4.984 2.063a6.988 6.988 0 0 0-2.064 4.98c0 1.884.734 3.652 2.064 4.984 2.666 2.661 7.302 2.661 9.966 0a7.007 7.007 0 0 0 2.063-4.984c0-1.882-.732-3.65-2.063-4.98a6.997 6.997 0 0 0-4.982-2.063z"/>
        <path fill="#494949" fill-rule="nonzero" d="M49.17 41.5H36.82a1.137 1.137 0 0 1 0-2.273h12.35c2.898 0 4.696-.695 5.344-2.066 1.743-3.693-3.9-11.825-6.22-14.647-.399-.484-.33-1.2.154-1.6a1.143 1.143 0 0 1 1.6.154c.947 1.152 9.186 11.414 6.52 17.062-1.054 2.236-3.543 3.37-7.398 3.37zM32.29 28.355a1.139 1.139 0 0 1-.975-1.718c1.838-3.09 3.786-5.467 3.868-5.567a1.132 1.132 0 0 1 1.6-.156c.484.4.554 1.113.157 1.6-.019.022-1.923 2.35-3.67 5.286a1.141 1.141 0 0 1-.98.555z"/>
        <path fill="#FFF" stroke="#494949" stroke-width="2" d="M13 34h46v14H13z"/>
        <path fill="#4D4D4D" fill-rule="nonzero" d="M24 36.39c0 .216-.224.391-.5.391-.827 0-1.5.526-1.5 1.172v6.094c0 .646.673 1.172 1.5 1.172.276 0 .5.175.5.39 0 .216-.224.391-.5.391-.817 0-1.544-.308-2-.783-.456.475-1.183.783-2 .783-.276 0-.5-.175-.5-.39 0-.216.224-.391.5-.391.827 0 1.5-.526 1.5-1.172v-6.094c0-.646-.673-1.172-1.5-1.172-.276 0-.5-.175-.5-.39 0-.216.224-.391.5-.391.817 0 1.544.308 2 .783.456-.475 1.183-.783 2-.783.276 0 .5.175.5.39z"/>
    </g>
</svg>
